<svg width="16" height="16" viewBox="0 0 16 16" fill="none" xmlns="http://www.w3.org/2000/svg">
  <path
    d="M8 0C3.58 0 0 3.58 0 8C0 11.54 2.29 14.44 5.47 15.54C5.87 15.62 6.02 15.34 6.02 15.1C6.02 14.9 6.01 14.31 6.01 13.63C4 14.09 3.48 12.97 3.48 12.97C3.11 12.05 2.57 11.8 2.57 11.8C1.84 11.31 2.62 11.32 2.62 11.32C3.43 11.38 3.87 12.17 3.87 12.17C4.59 13.35 5.73 12.98 6.17 12.78C6.23 12.25 6.43 11.91 6.65 11.7C4.84 11.5 2.91 10.81 2.91 7.7C2.91 6.82 3.23 6.14 3.77 5.64C3.68 5.44 3.39 4.58 3.84 3.44C3.84 3.44 4.54 3.22 6 4.3C6.65 4.1 7.35 4 8.05 4C8.75 4 9.45 4.1 10.1 4.3C11.55 3.22 12.25 3.44 12.25 3.44C12.7 4.58 12.41 5.44 12.32 5.64C12.87 6.14 13.18 6.82 13.18 7.7C13.18 10.82 11.23 11.49 9.41 11.69C9.7 11.97 9.96 12.5 9.96 13.27C9.96 14.27 9.95 14.92 9.95 15.1C9.95 15.34 10.1 15.63 10.5 15.54C13.71 14.44 16 11.54 16 8C16 3.58 12.42 0 8 0Z"
    fill="white"
  />
</svg>
